<?xml version="1.0" standalone="no"?>
<!DOCTYPE svg PUBLIC "-//W3C//DTD SVG 1.1//EN" "http://www.w3.org/Graphics/SVG/1.1/DTD/svg11.dtd" >
<svg xmlns="http://www.w3.org/2000/svg">
<metadata>Generated by IcoMoon</metadata>
<defs>
<font id="icomoon" horiz-adv-x="1024">
<font-face units-per-em="1024" ascent="857.6" descent="-166.4" />
<missing-glyph horiz-adv-x="1024" />
<glyph unicode="&#x20;" horiz-adv-x="512" d="" />
<glyph unicode="&#xe900;" glyph-name="add" d="M512 864c-282.772 0-512-229.228-512-511.99 0-282.782 229.228-512.010 512-512.010s512 229.228 512 512.010c0 282.762-229.228 511.99-512 511.99zM512-130.462c-266.033 0-482.462 216.428-482.462 482.471 0 266.023 216.428 482.452 482.462 482.452s482.462-216.428 482.462-482.452c0-266.043-216.428-482.471-482.462-482.471zM905.846 371.702h-374.154v374.144h-39.385v-374.144h-374.154v-39.394h374.154v-374.154h39.385v374.154h374.154z" />
<glyph unicode="&#xe901;" glyph-name="cancle" d="M512 864c-282.775 0-512-229.225-512-512s229.225-512 512-512 512 229.225 512 512-229.225 512-512 512zM740.472 183.642c7.71-7.71 12.469-18.342 12.469-30.057 0-23.522-19.064-42.526-42.526-42.526-11.776 0-22.347 4.759-30.057 12.469l-168.358 168.358-168.358-168.358c-7.71-7.71-18.342-12.469-30.057-12.469-23.522 0-42.526 19.004-42.526 42.526 0 11.716 4.759 22.347 12.439 30.057l168.358 168.358-168.358 168.328c-7.68 7.71-12.439 18.342-12.439 30.088 0 23.492 19.004 42.526 42.526 42.526 11.746 0 22.347-4.759 30.057-12.439l168.358-168.358 168.358 168.358c7.71 7.65 18.281 12.439 30.057 12.439 23.462 0 42.526-19.034 42.526-42.526 0-11.776-4.759-22.377-12.469-30.088l-168.358-168.328 168.358-168.358z" />
<glyph unicode="&#xe902;" glyph-name="delete" d="M677.647 608v90.353c0 37.436-23.462 60.235-61.771 60.235h-207.782c-38.249 0-61.741-22.799-61.741-60.235v-90.353h-180.706v-60.235h60.235v-512c0-54.272 33.973-90.353 90.353-90.353h391.529c55.085 0 90.353 33.491 90.353 90.353v512h60.235v60.235h-180.706zM406.588 698.353h210.824l-1.265-90.353h-209.559v90.353zM737.882 5.647h-451.765v542.118h451.765v-542.118zM466.824 487.529h-58.729l-1.506-391.529h60.235v391.529zM617.412 487.529h-60.235v-391.529h60.235v391.529z" />
<glyph unicode="&#xe903;" glyph-name="edit" d="M791.582 400.73c-5.15 8.915-14.547 15.179-25.751 15.179-11.174 0-20.54-6.234-25.72-15.059-2.68 0.693-4.337 0.060-4.337-4.488v-293.045c0-21.534-17.98-39.063-40.026-39.063h-460.168c-22.046 0-40.026 17.528-40.026 39.063 0 0 0 507.934 0 527.48 0 21.564 17.95 39.063 40.026 39.063h360.147c2.289 0 3.464 0.452 4.156 1.144 1.958-0.392 3.795-1.144 5.843-1.144 16.565 0 30.027 13.131 30.027 29.304s-13.463 29.304-30.027 29.304c-2.409 0-4.518-0.813-6.807-1.325-0.723 0.813-1.777 1.325-3.192 1.325h-380.145c-44.152 0-80.053-35.057-80.053-78.155v-566.543c0-43.098 35.9-78.155 80.053-78.155h500.224c44.152 0 80.023 35.057 80.023 78.155v312.591c0 2.53-1.687 3.795-4.247 4.367zM848.203 719.014c-12.439 10.692-31.413 9.517-42.376-2.62l-462.878-513.114c-10.963-12.137-9.758-30.66 2.68-41.352s31.413-9.517 42.376 2.62l462.908 513.084c10.903 12.137 9.728 30.69-2.711 41.382z" />
<glyph unicode="&#xe904;" glyph-name="preview" d="M976.474 292.066c-8.403-10.24-209.589-249.946-464.474-249.946s-456.072 239.706-464.504 249.946l-17.468 21.112 17.468 21.143c8.433 10.21 209.589 249.916 464.504 249.916s456.072-239.706 464.474-249.916l17.468-21.143-17.468-21.112zM512 519.183c-184.471 0-343.944-149.564-397.493-205.975 53.67-56.35 213.444-206.035 397.493-206.035 184.471 0 343.944 149.564 397.493 205.975-53.67 56.38-213.444 206.035-397.493 206.035zM512 172.228c-75.204 0-136.373 63.247-136.373 140.951s61.169 140.951 136.373 140.951 136.373-63.247 136.373-140.951-61.199-140.951-136.373-140.951zM512 389.075c-40.478 0-73.427-34.063-73.427-75.927s32.949-75.896 73.427-75.896 73.427 34.033 73.427 75.896-32.949 75.927-73.427 75.927z" />
<glyph unicode="&#xe905;" glyph-name="share" d="M751.968 239.904c-55.68 0-103.456-31.968-127.392-78.24l-257.216 156.288c10.336 19.872 16.736 42.080 16.736 66.016 0 16.352-3.328 31.776-8.32 46.432l269.504 145.6c26.368-29.312 64.192-48.096 106.688-48.096 79.552 0 144 64.48 144 144s-64.448 144-144 144c-79.488 0-144-64.48-144-144 0-13.952 2.592-27.168 6.304-39.904l-271.84-146.848c-26.080 26.4-62.272 42.816-102.368 42.816-79.52 0-144-64.48-144-144s64.48-144 144-144c32.064 0 61.408 10.848 85.344 28.576l282.656-171.744c0-0.32-0.096-0.608-0.096-0.864 0-79.52 64.512-144 144-144 79.552 0 144 64.48 144 144s-64.448 143.968-144 143.968zM751.968 751.904c44.128 0 80-35.904 80-80s-35.872-80-80-80-80 35.904-80 80 35.872 80 80 80zM240.064 303.968c-44.096 0-80 35.904-80 80s35.904 80 80 80 80-35.904 80-80-35.872-80-80-80zM751.968 15.904c-44.128 0-80 35.872-80 80s35.872 80 80 80 80-35.872 80-80-35.872-80-80-80z" />
<glyph unicode="&#xe906;" glyph-name="time" d="M505.984-111.317c-259.2 0-469.333 210.133-469.333 469.333s210.133 469.333 469.333 469.333 469.333-210.133 469.333-469.333-210.091-469.333-469.333-469.333zM505.984 739.328c-210.603 0-381.355-170.709-381.355-381.355 0-210.603 170.709-381.355 381.355-381.355 210.603 0 381.355 170.752 381.355 381.355 0 210.645-170.752 381.355-381.355 381.355zM696.661 313.984h-190.677c-24.32 0-43.989 19.712-43.989 43.989v264.021c0 24.277 19.669 43.989 43.989 43.989 24.277 0 43.989-19.712 43.989-43.989v-219.989h146.688c24.277 0 43.989-19.712 43.989-43.989s-19.712-44.032-43.989-44.032z" />
<glyph unicode="&#xe90a;" glyph-name="eyedropper" d="M986.51 794.51c-49.988 49.986-131.032 49.986-181.020 0l-172.118-172.118-121.372 121.372-135.764-135.764 106.426-106.426-472.118-472.118c-8.048-8.048-11.468-18.958-10.3-29.456h-0.244v-160c0-17.674 14.328-32 32-32h160c0 0 2.664 0 4 0 9.212 0 18.426 3.516 25.456 10.544l472.118 472.118 106.426-106.426 135.764 135.764-121.372 121.372 172.118 172.118c49.986 49.988 49.986 131.032 0 181.020zM173.090-128h-109.090v109.090l469.574 469.572 109.088-109.088-469.572-469.574z" />
<glyph unicode="&#xe947;" glyph-name="location" d="M512 832c-176.732 0-320-143.268-320-320 0-320 320-704 320-704s320 384 320 704c0 176.732-143.27 320-320 320zM512 320c-106.040 0-192 85.96-192 192s85.96 192 192 192 192-85.96 192-192-85.96-192-192-192z" />
<glyph unicode="&#xe948;" glyph-name="location2" d="M512 832c-176.732 0-320-143.268-320-320 0-320 320-704 320-704s320 384 320 704c0 176.732-143.27 320-320 320zM512 316c-108.248 0-196 87.752-196 196s87.752 196 196 196 196-87.752 196-196-87.752-196-196-196zM388 512c0 68.483 55.517 124 124 124s124-55.517 124-124c0-68.483-55.517-124-124-124s-124 55.517-124 124z" />
<glyph unicode="&#xe952;" glyph-name="stopwatch" d="M512.002 638.788v65.212h128v64c0 35.346-28.654 64-64.002 64h-191.998c-35.346 0-64-28.654-64-64v-64h128v-65.212c-214.798-16.338-384-195.802-384-414.788 0-229.75 186.25-416 416-416s416 186.25 416 416c0 218.984-169.202 398.448-384 414.788zM706.276-2.274c-60.442-60.44-140.798-93.726-226.274-93.726s-165.834 33.286-226.274 93.726c-60.44 60.44-93.726 140.8-93.726 226.274s33.286 165.834 93.726 226.274c58.040 58.038 134.448 91.018 216.114 93.548l-21.678-314.020c-1.86-26.29 12.464-37.802 31.836-37.802s33.698 11.512 31.836 37.802l-21.676 314.022c81.666-2.532 158.076-35.512 216.116-93.55 60.44-60.44 93.726-140.8 93.726-226.274s-33.286-165.834-93.726-226.274z" />
<glyph unicode="&#xe955;" glyph-name="keyboard" horiz-adv-x="1152" d="M1088 704h-1024c-35.2 0-64-28.8-64-64v-640c0-35.2 28.8-64 64-64h1024c35.2 0 64 28.8 64 64v640c0 35.2-28.8 64-64 64zM640 576h128v-128h-128v128zM832 384v-128h-128v128h128zM448 576h128v-128h-128v128zM640 384v-128h-128v128h128zM256 576h128v-128h-128v128zM448 384v-128h-128v128h128zM128 576h64v-128h-64v128zM128 384h128v-128h-128v128zM192 64h-64v128h64v-128zM768 64h-512v128h512v-128zM1024 64h-192v128h192v-128zM1024 256h-128v128h128v-128zM1024 448h-192v128h192v-128z" />
<glyph unicode="&#xe97c;" glyph-name="spinner3" d="M512 528.904c-32.964 0-59.686 26.724-59.686 59.686v179.060c0 32.964 26.722 59.686 59.686 59.686 32.962 0 59.688-26.722 59.688-59.686v-179.060c0-32.964-26.726-59.686-59.688-59.686zM512-164.956c-20.602 0-37.304 16.702-37.304 37.304v179.060c0 20.602 16.702 37.304 37.304 37.304 20.604 0 37.304-16.704 37.304-37.304v-179.060c0-20.602-16.7-37.304-37.304-37.304zM377.756 496.64c-19.34 0-38.146 10.034-48.512 27.988l-89.53 155.070c-15.452 26.764-6.282 60.986 20.482 76.438 26.762 15.45 60.986 6.284 76.438-20.482l89.53-155.072c15.452-26.764 6.282-60.986-20.482-76.438-8.81-5.084-18.432-7.504-27.926-7.504zM735.856-101.256c-11.602 0-22.886 6.022-29.108 16.792l-89.53 155.070c-9.27 16.056-3.77 36.592 12.29 45.864 16.056 9.264 36.59 3.77 45.864-12.292l89.532-155.068c9.27-16.058 3.768-36.592-12.292-45.864-5.286-3.048-11.060-4.502-16.756-4.502zM279.344 402.060c-8.86 0-17.838 2.256-26.064 7.006l-155.072 89.53c-24.978 14.422-33.538 46.362-19.116 71.342 14.42 24.978 46.364 33.538 71.342 19.116l155.070-89.53c24.98-14.422 33.538-46.362 19.116-71.34-9.668-16.756-27.226-26.124-45.276-26.124zM899.648 66.326c-5.064 0-10.196 1.29-14.894 4.004l-155.068 89.53c-14.274 8.24-19.164 26.494-10.924 40.768 8.242 14.276 26.496 19.166 40.766 10.924l155.070-89.532c14.274-8.24 19.164-26.492 10.924-40.766-5.53-9.574-15.562-14.928-25.874-14.928zM243.41 271.504h-179.060c-26.784 0-48.496 21.712-48.496 48.496s21.712 48.496 48.496 48.496h179.060c26.784 0 48.496-21.712 48.496-48.496s-21.712-48.496-48.496-48.496zM959.65 290.156c-0.002 0 0 0 0 0h-179.060c-16.482 0.002-29.844 13.364-29.844 29.844s13.364 29.844 29.844 29.844c0.002 0 0 0 0 0h179.060c16.482 0 29.844-13.362 29.844-29.844 0-16.48-13.364-29.844-29.844-29.844zM124.366 51.402c-15.472 0-30.518 8.028-38.81 22.39-12.362 21.41-5.026 48.79 16.384 61.148l155.072 89.532c21.41 12.368 48.79 5.028 61.15-16.384 12.362-21.412 5.026-48.79-16.384-61.15l-155.072-89.53c-7.050-4.070-14.748-6.006-22.34-6.006zM744.632 424.448c-10.314 0-20.346 5.352-25.874 14.926-8.24 14.274-3.35 32.526 10.924 40.768l155.070 89.528c14.272 8.236 32.526 3.352 40.768-10.922 8.24-14.274 3.35-32.526-10.924-40.768l-155.070-89.528c-4.7-2.714-9.83-4.004-14.894-4.004zM288.136-108.716c-6.962 0-14.016 1.774-20.48 5.504-19.626 11.332-26.35 36.428-15.020 56.054l89.53 155.070c11.33 19.628 36.426 26.352 56.054 15.022 19.626-11.332 26.35-36.43 15.020-56.054l-89.53-155.072c-7.598-13.166-21.392-20.524-35.574-20.524zM646.266 522.758c-5.062 0-10.196 1.29-14.894 4.002-14.274 8.242-19.164 26.494-10.924 40.766l89.534 155.070c8.24 14.274 26.492 19.166 40.766 10.922 14.274-8.242 19.164-26.494 10.924-40.766l-89.532-155.070c-5.53-9.57-15.56-14.924-25.874-14.924z" />
<glyph unicode="&#xe9a4;" glyph-name="leaf" d="M1011.328 697.504c-110.752 83.928-281.184 134.034-455.91 134.034-216.12 0-392.226-75.456-483.16-207.020-42.708-61.79-66.33-134.958-70.208-217.474-3.454-73.474 8.884-154.726 36.684-242.146 94.874 284.384 359.82 507.102 665.266 507.102 0 0-285.826-75.232-465.524-308.192-0.112-0.138-2.494-3.090-6.614-8.698-36.080-48.278-67.538-103.162-91.078-165.328-39.87-94.83-76.784-224.948-76.784-381.782h128c0 0-19.43 122.222 14.36 262.79 55.89-7.556 105.858-11.306 150.852-11.306 117.678 0 201.37 25.46 263.388 80.124 55.568 48.978 86.198 114.786 118.624 184.456 49.524 106.408 105.654 227.010 268.654 320.152 9.33 5.332 15.362 14.992 16.056 25.716s-4.040 21.080-12.606 27.572z" />
<glyph unicode="&#xe9cc;" glyph-name="flag" d="M0 832h128v-1024h-128v1024zM832 188.998c82.624 0 154.57 19.984 192 49.5v512c-37.43-29.518-109.376-49.502-192-49.502s-154.57 19.984-192 49.502v-512c37.43-29.516 109.376-49.5 192-49.5zM608 799.472c-46.906 19.94-115.52 32.528-192 32.528-96.396 0-180.334-19.984-224-49.502v-512c43.666 29.518 127.604 49.502 224 49.502 76.48 0 145.094-12.588 192-32.528v512z" />
<glyph unicode="&#xe9e3;" glyph-name="tongue" d="M512-192c282.77 0 512 229.23 512 512s-229.23 512-512 512-512-229.23-512-512 229.23-512 512-512zM512 736c229.75 0 416-186.25 416-416s-186.25-416-416-416-416 186.25-416 416 186.25 416 416 416zM256 512c0 35.346 28.654 64 64 64s64-28.654 64-64c0-35.346-28.654-64-64-64s-64 28.654-64 64zM640 512c0 35.346 28.654 64 64 64s64-28.654 64-64c0-35.346-28.654-64-64-64s-64 28.654-64 64zM768 256v-64h-64v-96c0-53.020-42.98-96-96-96s-96 42.98-96 96v96h-256v64h512z" />
<glyph unicode="&#xe9e5;" glyph-name="sad" d="M512-192c282.77 0 512 229.23 512 512s-229.23 512-512 512-512-229.23-512-512 229.23-512 512-512zM512 736c229.75 0 416-186.25 416-416s-186.25-416-416-416-416 186.25-416 416 186.25 416 416 416zM256 512c0 35.346 28.654 64 64 64s64-28.654 64-64c0-35.346-28.654-64-64-64s-64 28.654-64 64zM640 512c0 35.346 28.654 64 64 64s64-28.654 64-64c0-35.346-28.654-64-64-64s-64 28.654-64 64zM319.902 51.26l-82.328 49.396c55.962 93.070 157.916 155.344 274.426 155.344 116.508 0 218.462-62.274 274.426-155.344l-82.328-49.396c-39.174 65.148-110.542 108.74-192.098 108.74-81.558 0-152.924-43.592-192.098-108.74z" />
<glyph unicode="&#xe9e6;" glyph-name="sad2" d="M512 832c-282.77 0-512-229.23-512-512s229.23-512 512-512 512 229.23 512 512-229.23 512-512 512zM704 576c35.346 0 64-28.654 64-64s-28.654-64-64-64-64 28.654-64 64 28.654 64 64 64zM320 576c35.346 0 64-28.654 64-64s-28.654-64-64-64-64 28.654-64 64 28.654 64 64 64zM704.098 51.26c-39.174 65.148-110.544 108.74-192.098 108.74-81.556 0-152.924-43.592-192.098-108.74l-82.328 49.396c55.96 93.070 157.916 155.344 274.426 155.344 116.508 0 218.464-62.274 274.426-155.344l-82.328-49.396z" />
<glyph unicode="&#xe9e7;" glyph-name="wink" d="M512-192c282.77 0 512 229.23 512 512s-229.23 512-512 512-512-229.23-512-512 229.23-512 512-512zM512 736c229.75 0 416-186.25 416-416s-186.25-416-416-416-416 186.25-416 416 186.25 416 416 416zM542.74 120.972c140.248 27.706 249.11 91.542 288.454 176.594-21.654-167.956-161.518-297.566-330.85-297.566-119.242 0-223.858 64.282-282.892 160.948 70.41-55.058 194.534-65.808 325.288-39.976zM640 480c0 53.019 28.654 96 64 96s64-42.981 64-96c0-53.019-28.654-96-64-96s-64 42.981-64 96zM352 460.5c-41.796 0-77.334-15.656-90.516-37.5-3.54 5.866-5.484 32.174-5.484 38.75 0 31.066 42.98 56.25 96 56.25s96-25.184 96-56.25c0-6.576-1.944-32.884-5.484-38.75-13.182 21.844-48.72 37.5-90.516 37.5z" />
<glyph unicode="&#xe9e8;" glyph-name="wink2" d="M512 832c-282.77 0-512-229.228-512-512 0-282.77 229.228-512 512-512 282.77 0 512 229.23 512 512 0 282.772-229.23 512-512 512zM704 576c35.346 0 64-42.98 64-96s-28.654-96-64-96-64 42.98-64 96 28.654 96 64 96zM352 519.938c59.646 0 102-22.332 102-57.282 0-7.398 3.812-42.994-0.17-49.594-14.828 24.576-54.81 42.188-101.83 42.188s-87.002-17.612-101.83-42.188c-3.982 6.6-0.17 42.196-0.17 49.594 0 34.95 42.354 57.282 102 57.282zM500.344 0c-119.242 0-223.858 64.28-282.892 160.952 70.41-55.060 194.534-65.81 325.288-39.978 140.248 27.706 249.11 91.542 288.454 176.594-21.654-167.96-161.518-297.568-330.85-297.568z" />
<glyph unicode="&#xe9e9;" glyph-name="grin" d="M512-192c282.77 0 512 229.23 512 512s-229.23 512-512 512-512-229.23-512-512 229.23-512 512-512zM512 736c229.75 0 416-186.25 416-416s-186.25-416-416-416-416 186.25-416 416 186.25 416 416 416zM192 320v-64c0-140.8 115.2-256 256-256h128c140.8 0 256 115.2 256 256v64h-640zM384 75.012c-26.538 9.458-50.924 24.822-71.544 45.446-36.406 36.402-56.456 84.54-56.456 135.542h128v-180.988zM576 64h-128v192h128v-192zM711.544 120.458c-20.624-20.624-45.010-35.988-71.544-45.446v180.988h128c0-51.002-20.048-99.14-56.456-135.542zM225.352 448c0.002 0 0 0 0 0 9.768 0 18.108 7.056 19.724 16.69 6.158 36.684 37.668 63.31 74.924 63.31s68.766-26.626 74.924-63.31c1.616-9.632 9.956-16.69 19.722-16.69 9.768 0 18.108 7.056 19.724 16.688 1.082 6.436 1.628 12.934 1.628 19.312 0 63.962-52.038 116-116 116s-116-52.038-116-116c0-6.378 0.548-12.876 1.628-19.312 1.62-9.632 9.96-16.688 19.726-16.688zM609.352 448c0.002 0 0 0 0 0 9.77 0 18.112 7.056 19.724 16.69 6.158 36.684 37.668 63.31 74.924 63.31s68.766-26.626 74.924-63.31c1.616-9.632 9.958-16.69 19.722-16.69s18.108 7.056 19.722 16.688c1.082 6.436 1.628 12.934 1.628 19.312 0 63.962-52.038 116-116 116s-116-52.038-116-116c0-6.378 0.544-12.876 1.626-19.312 1.624-9.632 9.964-16.688 19.73-16.688z" />
<glyph unicode="&#xe9ea;" glyph-name="grin2" d="M512 832c-282.77 0-512-229.23-512-512s229.226-512 512-512c282.77 0 512 229.23 512 512s-229.23 512-512 512zM704 596c63.962 0 116-52.038 116-116 0-6.378-0.546-12.876-1.628-19.312-1.618-9.632-9.958-16.688-19.724-16.688s-18.108 7.056-19.722 16.69c-6.16 36.684-37.67 53.31-74.926 53.31s-68.766-16.626-74.924-53.31c-1.616-9.632-9.956-16.69-19.722-16.69-0.002 0 0 0-0.002 0-9.766 0-18.106 7.056-19.722 16.688-1.084 6.436-1.63 12.934-1.63 19.312 0 63.962 52.038 116 116 116zM320 596c63.962 0 116-52.038 116-116 0-6.378-0.548-12.876-1.628-19.312-1.618-9.632-9.956-16.688-19.724-16.688s-18.106 7.056-19.722 16.69c-6.16 36.684-37.67 53.31-74.926 53.31s-68.766-16.626-74.924-53.31c-1.616-9.632-9.956-16.69-19.722-16.69 0 0 0 0 0 0-9.766 0-18.106 7.056-19.724 16.688-1.082 6.436-1.63 12.934-1.63 19.312 0 63.962 52.038 116 116 116zM192 256h192v-247.846c-110.094 28.606-192 129.124-192 247.846zM448 0v256h128v-256h-128zM640 8.154v247.846h192c0-118.722-81.904-219.24-192-247.846z" />
<glyph unicode="&#xe9eb;" glyph-name="cool" d="M512-192c282.77 0 512 229.23 512 512s-229.23 512-512 512-512-229.23-512-512 229.23-512 512-512zM512 736c229.75 0 416-186.25 416-416s-186.25-416-416-416-416 186.25-416 416 186.25 416 416 416zM800 576c17.6 0 32-14.4 32-32v-96c0-35.2-28.8-64-64-64h-128c-35.2 0-64 28.8-64 64h-128c0-35.2-28.8-64-64-64h-128c-35.2 0-64 28.8-64 64v96c0 17.6 14.4 32 32 32h192c17.6 0 32-14.4 32-32v-32h128v32c0 17.6 14.4 32 32 32h192zM512 64c93.208 0 174.772 49.818 219.546 124.278l54.88-32.934c-55.966-93.070-157.916-155.344-274.426-155.344-48.458 0-94.384 10.796-135.54 30.082l33.162 55.278c31.354-13.714 65.964-21.36 102.378-21.36z" />
<glyph unicode="&#xe9ec;" glyph-name="cool2" d="M512 832c-282.77 0-512-229.23-512-512s229.226-512 512-512c282.77 0 512 229.23 512 512s-229.23 512-512 512zM512 0c-48.458 0-94.384 10.796-135.542 30.082l33.162 55.276c31.356-13.712 65.966-21.358 102.38-21.358 93.208 0 174.772 49.818 219.542 124.278l54.882-32.934c-55.964-93.070-157.914-155.344-274.424-155.344zM832 448c0-35.2-28.8-64-64-64h-128c-35.2 0-64 28.8-64 64h-128c0-35.2-28.8-64-64-64h-128c-35.2 0-64 28.8-64 64v96c0 17.6 14.4 32 32 32h192c17.6 0 32-14.4 32-32v-32h128v32c0 17.6 14.4 32 32 32h192c17.6 0 32-14.4 32-32v-96z" />
<glyph unicode="&#xe9ed;" glyph-name="angry" d="M512-192c282.77 0 512 229.23 512 512s-229.23 512-512 512-512-229.23-512-512 229.23-512 512-512zM512 736c229.75 0 416-186.25 416-416s-186.25-416-416-416-416 186.25-416 416 186.25 416 416 416zM704.098 51.26c-39.174 65.148-110.544 108.74-192.098 108.74-81.556 0-152.924-43.592-192.098-108.74l-82.328 49.396c55.96 93.070 157.916 155.344 274.426 155.344 116.508 0 218.464-62.274 274.426-155.344l-82.328-49.396zM767.042 551.76c4.284-17.144-6.14-34.518-23.282-38.804-17.626-4.45-38.522-12.12-56.936-21.35 10.648-11.43 17.174-26.752 17.174-43.606 0-35.346-28.654-64-64-64s-64 28.654-64 64c0 1.17 0.036 2.33 0.098 3.484 2.032 47.454 45.212 78.946 81.592 97.138 34.742 17.37 69.102 26.060 70.548 26.422 17.146 4.288 34.518-6.138 38.806-23.284zM256.958 551.76c4.288 17.146 21.66 27.572 38.806 23.284 1.446-0.362 35.806-9.052 70.548-26.422 36.38-18.192 79.56-49.684 81.592-97.138 0.062-1.154 0.098-2.314 0.098-3.484 0-35.346-28.654-64-64-64s-64 28.654-64 64c0 16.854 6.526 32.176 17.174 43.606-18.414 9.23-39.31 16.9-56.936 21.35-17.142 4.286-27.566 21.66-23.282 38.804z" />
<glyph unicode="&#xe9ee;" glyph-name="angry2" d="M512 832c-282.77 0-512-229.23-512-512s229.23-512 512-512 512 229.23 512 512-229.23 512-512 512zM576.094 451.484c2.032 47.454 45.21 78.948 81.592 97.138 34.742 17.372 69.104 26.060 70.548 26.422 17.146 4.288 34.52-6.138 38.806-23.284s-6.138-34.518-23.284-38.806c-17.624-4.45-38.522-12.12-56.936-21.35 10.648-11.43 17.174-26.752 17.174-43.606 0-35.346-28.654-64-64-64s-64 28.654-64 64c0.002 1.17 0.038 2.332 0.1 3.486zM256.958 551.76c4.288 17.146 21.66 27.572 38.806 23.284 1.446-0.362 35.806-9.052 70.548-26.422 36.38-18.192 79.56-49.684 81.592-97.138 0.062-1.154 0.098-2.314 0.098-3.484 0-35.346-28.654-64-64-64s-64 28.654-64 64c0 16.854 6.526 32.176 17.174 43.606-18.414 9.23-39.31 16.9-56.936 21.35-17.142 4.286-27.566 21.66-23.282 38.804zM704.098 51.26c-39.174 65.148-110.544 108.74-192.098 108.74-81.556 0-152.924-43.592-192.098-108.74l-82.328 49.396c55.96 93.070 157.916 155.344 274.426 155.344 116.508 0 218.464-62.274 274.426-155.344l-82.328-49.396z" />
<glyph unicode="&#xe9ef;" glyph-name="evil" d="M639.996 384c-35.346 0-64 28.654-63.998 64.002 0 1.17 0.036 2.33 0.098 3.484 2.032 47.454 45.212 78.946 81.592 97.138 34.742 17.37 69.102 26.060 70.548 26.422 17.146 4.288 34.518-6.138 38.806-23.284 4.284-17.146-6.14-34.518-23.284-38.806-17.626-4.45-38.522-12.12-56.936-21.35 10.648-11.43 17.174-26.752 17.174-43.606 0-35.346-28.654-64-64-64zM280.242 512.956c-17.144 4.286-27.568 21.66-23.282 38.804 4.286 17.146 21.66 27.572 38.806 23.284 1.444-0.362 35.806-9.050 70.548-26.422 36.382-18.19 79.56-49.684 81.592-97.138 0.062-1.154 0.098-2.316 0.098-3.484 0-35.346-28.654-64-64-64s-64 28.654-64 64c0 16.854 6.526 32.176 17.174 43.606-18.414 9.23-39.312 16.9-56.936 21.35zM512 96c81.554 0 152.924 43.592 192.098 108.74l82.328-49.396c-55.962-93.070-157.916-155.344-274.426-155.344s-218.464 62.274-274.426 155.344l82.328 49.396c39.174-65.148 110.542-108.74 192.098-108.74zM1024 768c0 45.516-9.524 88.8-26.652 128-33.576-76.836-96.448-137.932-174.494-169.178-86.194 65.96-193.936 105.178-310.854 105.178s-224.66-39.218-310.854-105.178c-78.048 31.246-140.918 92.342-174.494 169.178-17.128-39.2-26.652-82.484-26.652-128 0-73.574 24.85-141.328 66.588-195.378-42.37-74.542-66.588-160.75-66.588-252.622 0-282.77 229.23-512 512-512s512 229.23 512 512c0 91.872-24.218 178.080-66.588 252.622 41.738 54.050 66.588 121.804 66.588 195.378zM512-96c-229.75 0-416 186.25-416 416s186.25 416 416 416 416-186.25 416-416-186.25-416-416-416z" />
<glyph unicode="&#xe9f0;" glyph-name="evil2" d="M1024 768c0 45.516-9.524 88.8-26.652 128-33.576-76.836-96.448-137.932-174.494-169.178-86.194 65.96-193.936 105.178-310.854 105.178s-224.66-39.218-310.854-105.178c-78.048 31.246-140.918 92.342-174.494 169.178-17.128-39.2-26.652-82.484-26.652-128 0-73.574 24.85-141.328 66.588-195.378-42.37-74.542-66.588-160.75-66.588-252.622 0-282.77 229.23-512 512-512s512 229.23 512 512c0 91.872-24.218 178.080-66.588 252.622 41.738 54.050 66.588 121.804 66.588 195.378zM576.094 451.484c2.032 47.454 45.21 78.948 81.592 97.138 34.742 17.372 69.104 26.060 70.548 26.422 17.146 4.288 34.52-6.138 38.806-23.284s-6.138-34.518-23.284-38.806c-17.624-4.45-38.522-12.12-56.936-21.35 10.648-11.43 17.174-26.752 17.174-43.606 0-35.346-28.654-64-64-64s-64 28.654-64 64c0.002 1.17 0.038 2.332 0.1 3.486zM256.958 551.76c4.288 17.146 21.66 27.572 38.806 23.284 1.446-0.362 35.806-9.052 70.548-26.422 36.38-18.192 79.56-49.684 81.592-97.138 0.062-1.154 0.098-2.314 0.098-3.484 0-35.346-28.654-64-64-64s-64 28.654-64 64c0 16.854 6.526 32.176 17.174 43.606-18.414 9.23-39.31 16.9-56.936 21.35-17.142 4.286-27.566 21.66-23.282 38.804zM512 0c-116.51 0-218.464 62.274-274.426 155.344l82.328 49.396c39.174-65.148 110.542-108.74 192.098-108.74 81.554 0 152.924 43.592 192.098 108.74l82.328-49.396c-55.962-93.070-157.916-155.344-274.426-155.344z" />
<glyph unicode="&#xe9f1;" glyph-name="shocked" d="M512-192c282.77 0 512 229.23 512 512s-229.23 512-512 512-512-229.23-512-512 229.23-512 512-512zM512 736c229.75 0 416-186.25 416-416s-186.25-416-416-416-416 186.25-416 416 186.25 416 416 416zM384 128c0 70.692 57.308 128 128 128s128-57.308 128-128c0-70.692-57.308-128-128-128s-128 57.308-128 128zM640 480c0 53.019 28.654 96 64 96s64-42.981 64-96c0-53.019-28.654-96-64-96s-64 42.981-64 96zM256 480c0 53.019 28.654 96 64 96s64-42.981 64-96c0-53.019-28.654-96-64-96s-64 42.981-64 96z" />
<glyph unicode="&#xe9f4;" glyph-name="baffled2" d="M384 416c0-17.674-14.326-32-32-32s-32 14.326-32 32 14.326 32 32 32 32-14.326 32-32zM704 416c0-17.674-14.326-32-32-32s-32 14.326-32 32 14.326 32 32 32 32-14.326 32-32zM512 832c-282.77 0-512-229.23-512-512s229.23-512 512-512 512 229.23 512 512-229.23 512-512 512zM256 416c0 53.020 42.98 96 96 96s96-42.98 96-96-42.98-96-96-96-96 42.98-96 96zM640 64h-256v64h256v-64zM672 320c-53.020 0-96 42.98-96 96s42.98 96 96 96 96-42.98 96-96-42.98-96-96-96z" />
<glyph unicode="&#xe9f5;" glyph-name="confused" d="M512-192c282.77 0 512 229.23 512 512s-229.23 512-512 512-512-229.23-512-512 229.23-512 512-512zM512 736c229.75 0 416-186.25 416-416s-186.25-416-416-416-416 186.25-416 416 186.25 416 416 416zM256 512c0 35.346 28.654 64 64 64s64-28.654 64-64c0-35.346-28.654-64-64-64s-64 28.654-64 64zM640 512c0 35.346 28.654 64 64 64s64-28.654 64-64c0-35.346-28.654-64-64-64s-64 28.654-64 64zM726.106 192h64.864c9.246-72.506-32.452-144.53-103.958-170.56-82.904-30.176-174.9 12.716-205.080 95.616-18.108 49.744-73.306 75.482-123.048 57.372-45.562-16.588-70.956-64.298-60.988-110.424h-64.86c-9.242 72.508 32.45 144.528 103.956 170.56 82.904 30.178 174.902-12.716 205.082-95.614 18.104-49.748 73.306-75.482 123.044-57.372 45.562 16.584 70.956 64.298 60.988 110.422z" />
<glyph unicode="&#xe9f6;" glyph-name="confused2" d="M512 832c-282.77 0-512-229.23-512-512s229.226-512 512-512c282.77 0 512 229.23 512 512s-229.23 512-512 512zM704 576c35.346 0 64-28.654 64-64s-28.654-64-64-64-64 28.654-64 64c0 35.346 28.654 64 64 64zM320 576c35.346 0 64-28.654 64-64s-28.654-64-64-64-64 28.654-64 64c0 35.346 28.654 64 64 64zM687.010 21.44c-82.902-30.18-174.9 12.712-205.080 95.614-18.108 49.742-73.306 75.478-123.048 57.372-45.562-16.588-70.958-64.296-60.988-110.424h-64.86c-9.244 72.508 32.45 144.532 103.956 170.56 82.904 30.18 174.902-12.712 205.082-95.614 18.108-49.742 73.306-75.476 123.046-57.37 45.562 16.584 70.958 64.294 60.988 110.422h64.864c9.24-72.506-32.454-144.532-103.96-170.56z" />
<glyph unicode="&#xe9f7;" glyph-name="neutral" d="M512-192c282.77 0 512 229.23 512 512s-229.23 512-512 512-512-229.23-512-512 229.23-512 512-512zM512 736c229.75 0 416-186.25 416-416s-186.25-416-416-416-416 186.25-416 416 186.25 416 416 416zM256 512c0-35.346 28.654-64 64-64s64 28.654 64 64-28.654 64-64 64-64-28.654-64-64zM640 512c0-35.346 28.654-64 64-64s64 28.654 64 64-28.654 64-64 64-64-28.654-64-64zM384 128h256v-64h-256v64z" />
<glyph unicode="&#xe9f8;" glyph-name="neutral2" d="M512 832c-282.77 0-512-229.23-512-512s229.226-512 512-512c282.77 0 512 229.23 512 512s-229.23 512-512 512zM640 64h-256v64h256v-64zM704 576c35.346 0 64-28.654 64-64s-28.654-64-64-64-64 28.654-64 64c0 35.346 28.654 64 64 64zM320 576c35.346 0 64-28.654 64-64s-28.654-64-64-64-64 28.654-64 64c0 35.346 28.654 64 64 64z" />
<glyph unicode="&#xe9f9;" glyph-name="hipster" d="M512-192c282.77 0 512 229.23 512 512s-229.23 512-512 512-512-229.23-512-512 229.23-512 512-512zM512 736c229.75 0 416-186.25 416-416s-186.25-416-416-416-416 186.25-416 416 186.25 416 416 416zM256 512c0 35.346 28.654 64 64 64s64-28.654 64-64-28.654-64-64-64-64 28.654-64 64zM640 512c0 35.346 28.654 64 64 64s64-28.654 64-64-28.654-64-64-64-64 28.654-64 64zM675.882 291.882c-37.49 37.49-98.276 37.49-135.766 0s-37.49-98.276 0-135.766c1.204-1.204 2.434-2.368 3.684-3.492 86.528-78.512 288.2 1.842 288.2 103.376-62-40-110.45-9.786-156.118 35.882zM348.118 291.882c37.49 37.49 98.276 37.49 135.766 0s37.49-98.276 0-135.766c-1.204-1.204-2.434-2.368-3.684-3.492-86.528-78.512-288.2 1.842-288.2 103.376 62-40 110.45-9.786 156.118 35.882z" />
<glyph unicode="&#xe9fa;" glyph-name="hipster2" d="M512 832c-282.77 0-512-229.23-512-512s229.23-512 512-512 512 229.23 512 512-229.23 512-512 512zM704 576c35.346 0 64-28.654 64-64s-28.654-64-64-64-64 28.654-64 64 28.654 64 64 64zM320 576c35.346 0 64-28.654 64-64s-28.654-64-64-64-64 28.654-64 64 28.654 64 64 64zM543.8 152.624c-1.25 1.124-2.48 2.29-3.684 3.492-18.74 18.74-28.112 43.3-28.118 67.864-0.004-24.562-9.376-49.124-28.118-67.864-1.204-1.204-2.434-2.368-3.684-3.492-86.524-78.512-288.196 1.842-288.196 103.376 62-40 110.45-9.786 156.118 35.882 37.49 37.49 98.276 37.49 135.766 0 18.74-18.74 28.112-43.3 28.118-67.864 0.004 24.562 9.376 49.124 28.118 67.864 37.49 37.49 98.276 37.49 135.766 0 45.664-45.668 94.114-75.882 156.114-35.882 0-101.534-201.672-181.888-288.2-103.376z" />
<glyph unicode="&#xe9fb;" glyph-name="wondering" d="M512-192c282.77 0 512 229.23 512 512s-229.23 512-512 512-512-229.23-512-512 229.23-512 512-512zM512 736c229.75 0 416-186.25 416-416s-186.25-416-416-416-416 186.25-416 416 186.25 416 416 416zM745.74 230.38l22.488-76.776-437.008-128.002-22.488 76.776zM256 512c0 35.346 28.654 64 64 64s64-28.654 64-64c0-35.346-28.654-64-64-64s-64 28.654-64 64zM640 512c0 35.346 28.654 64 64 64s64-28.654 64-64c0-35.346-28.654-64-64-64s-64 28.654-64 64z" />
<glyph unicode="&#xe9fc;" glyph-name="wondering2" d="M512 832c-282.77 0-512-229.23-512-512s229.23-512 512-512 512 229.23 512 512-229.23 512-512 512zM704 576c35.346 0 64-28.654 64-64s-28.654-64-64-64-64 28.654-64 64 28.654 64 64 64zM256 512c0 35.346 28.654 64 64 64s64-28.654 64-64-28.654-64-64-64-64 28.654-64 64zM331.244 25.614l-22.488 76.774 437 128 22.488-76.774-437-128z" />
<glyph unicode="&#xe9fd;" glyph-name="sleepy" d="M512-192c282.77 0 512 229.23 512 512s-229.23 512-512 512-512-229.23-512-512 229.23-512 512-512zM512 736c229.75 0 416-186.25 416-416s-186.25-416-416-416-416 186.25-416 416 186.25 416 416 416zM640 160c0-88.366-57.308-160-128.002-160s-128.002 71.634-128.002 160c0 88.366 57.308 160 128.002 160s128.002-71.634 128.002-160zM416 492c-8.19 0-16.378 3.124-22.626 9.374-19.334 19.332-63.412 19.332-82.746 0-12.496-12.498-32.758-12.498-45.254 0-12.498 12.496-12.498 32.758 0 45.254 44.528 44.53 128.726 44.53 173.254 0 12.498-12.496 12.498-32.758 0-45.254-6.248-6.25-14.438-9.374-22.628-9.374zM736 492c-8.19 0-16.378 3.124-22.626 9.374-19.332 19.332-63.414 19.332-82.746 0-12.496-12.498-32.758-12.498-45.254 0-12.498 12.496-12.498 32.758 0 45.254 44.528 44.53 128.726 44.53 173.254 0 12.498-12.496 12.498-32.758 0-45.254-6.248-6.25-14.438-9.374-22.628-9.374z" />
<glyph unicode="&#xe9fe;" glyph-name="sleepy2" d="M512 832c-282.77 0-512-229.23-512-512s229.23-512 512-512 512 229.23 512 512-229.23 512-512 512zM310.628 501.374c-12.496-12.498-32.758-12.498-45.254 0-12.498 12.496-12.498 32.758 0 45.254 44.528 44.53 128.726 44.53 173.254 0 12.498-12.496 12.498-32.758 0-45.254-6.248-6.25-14.438-9.374-22.628-9.374s-16.378 3.124-22.626 9.374c-19.334 19.332-63.412 19.332-82.746 0zM511.998 0c-70.694 0-128.002 71.634-128.002 160s57.308 160 128.002 160 128.002-71.634 128.002-160-57.308-160-128.002-160zM758.628 501.374c-6.248-6.25-14.438-9.374-22.628-9.374s-16.378 3.124-22.626 9.374c-19.332 19.332-63.414 19.332-82.746 0-12.496-12.498-32.758-12.498-45.254 0-12.498 12.496-12.498 32.758 0 45.254 44.528 44.53 128.726 44.53 173.254 0 12.498-12.498 12.498-32.758 0-45.254z" />
<glyph unicode="&#xe9ff;" glyph-name="frustrated" d="M366.312 548.622c-34.742 17.37-69.102 26.060-70.548 26.422-17.146 4.288-34.518-6.138-38.806-23.284-4.284-17.144 6.14-34.518 23.282-38.804 17.626-4.45 38.522-12.12 56.936-21.35-10.648-11.43-17.174-26.752-17.174-43.606 0-35.346 28.654-64 64-64s64 28.654 64 64c0 1.17-0.036 2.33-0.098 3.484-2.032 47.454-45.212 78.946-81.592 97.138zM512 832c-282.77 0-512-229.23-512-512s229.23-512 512-512 512 229.23 512 512-229.23 512-512 512zM236.498 8.336c10.706-5.324 22.756-8.336 35.502-8.336h480c12.746 0 24.796 3.012 35.502 8.338-73.378-64.914-169.828-104.338-275.502-104.338-105.672 0-202.124 39.424-275.502 104.336zM256 80v96c0 8.674 7.328 16 16 16h112v-128h-112c-8.672 0-16 7.326-16 16zM448 64v128h128v-128h-128zM640 64v128h112c8.674 0 16-7.326 16-16v-96c0-8.674-7.326-16-16-16h-112zM823.662 44.498c5.326 10.706 8.338 22.756 8.338 35.502v96c0 44.112-35.888 80-80 80h-480c-44.112 0-80-35.888-80-80v-96c0-12.746 3.012-24.796 8.336-35.502-64.912 73.378-104.336 169.828-104.336 275.502 0 229.75 186.25 416 416 416s416-186.25 416-416c0-105.674-39.424-202.124-104.338-275.502zM728.236 575.044c-1.448-0.362-35.806-9.052-70.548-26.422-36.378-18.192-79.558-49.684-81.592-97.138-0.060-1.154-0.098-2.314-0.098-3.484 0-35.346 28.654-64 64-64s64 28.654 64 64c0 16.854-6.526 32.176-17.174 43.606 18.414 9.23 39.31 16.9 56.936 21.35 17.142 4.286 27.566 21.66 23.284 38.804-4.29 17.146-21.662 27.572-38.808 23.284z" />
<glyph unicode="&#xea01;" glyph-name="crying" d="M512-192c282.77 0 512 229.23 512 512s-229.23 512-512 512-512-229.23-512-512 229.23-512 512-512zM512 736c229.75 0 416-186.25 416-416s-186.25-416-416-416-416 186.25-416 416 186.25 416 416 416zM800 448h-128c-17.674 0-32 14.328-32 32s14.326 32 32 32h128c17.674 0 32-14.328 32-32s-14.326-32-32-32zM352 448h-128c-17.672 0-32 14.328-32 32s14.328 32 32 32h128c17.672 0 32-14.328 32-32s-14.328-32-32-32zM608-24c-8.19 0-16.378 3.124-22.626 9.374-4.582 4.582-29.42 14.626-73.374 14.626s-68.79-10.044-73.374-14.626c-12.496-12.496-32.758-12.496-45.254 0-12.498 12.496-12.498 32.758 0 45.254 30.122 30.12 92.994 33.372 118.628 33.372 25.632 0 88.506-3.252 118.626-33.374 12.498-12.496 12.498-32.758 0-45.254-6.248-6.248-14.436-9.372-22.626-9.372zM736 256c-17.674 0-32 14.326-32 32v64c0 17.672 14.326 32 32 32s32-14.328 32-32v-64c0-17.674-14.326-32-32-32zM736 64c-17.674 0-32 14.326-32 32v64c0 17.674 14.326 32 32 32s32-14.326 32-32v-64c0-17.674-14.326-32-32-32zM288 256c-17.672 0-32 14.326-32 32v64c0 17.672 14.328 32 32 32s32-14.328 32-32v-64c0-17.674-14.328-32-32-32zM288 64c-17.672 0-32 14.326-32 32v64c0 17.674 14.328 32 32 32s32-14.326 32-32v-64c0-17.674-14.328-32-32-32z" />
<glyph unicode="&#xea04;" glyph-name="point-right" d="M416-128h160c52.934 0 96 43.066 96 96 0 17.104-4.494 33.176-12.368 47.098 26.664 17.076 44.368 46.958 44.368 80.902 0 24.564-9.276 47.004-24.504 64 15.228 16.996 24.504 39.436 24.504 64 0 11.214-1.934 21.986-5.484 32h229.484c52.934 0 96 43.066 96 96s-43.066 96-96 96h-394.676l93.836 176.018c8.4 14.536 12.84 31.126 12.84 47.982 0 52.934-43.066 96-96 96-26.368 0-50.954-10.472-69.226-29.49-0.238-0.248-0.47-0.496-0.7-0.75l-218.074-239.17v45.41c0 17.672-14.326 32-32 32h-192c-17.674 0-32-14.328-32-32v-640c0-17.674 14.326-32 32-32h192c17.674 0 32 14.326 32 32v44.222l145.69-72.844c4.444-2.222 9.342-3.378 14.31-3.378zM160-64c-17.674 0-32 14.326-32 32s14.326 32 32 32 32-14.326 32-32-14.326-32-32-32zM423.556-64l-167.556 83.778v383.824l265.168 290.818c6.066 6.18 14.162 9.58 22.832 9.58 17.644 0 32-14.356 32-32 0-5.46-1.308-10.612-3.894-15.324-0.324-0.53-0.632-1.070-0.926-1.622l-119.418-224c-5.288-9.92-4.986-21.884 0.8-31.52 5.784-9.638 16.198-15.534 27.438-15.534h448c17.644 0 32-14.356 32-32s-14.356-32-32-32h-320c-17.672 0-32-14.326-32-32s14.328-32 32-32c17.644 0 32-14.356 32-32s-14.356-32-32-32c-17.674 0-32-14.326-32-32s14.326-32 32-32c17.644 0 32-14.356 32-32s-14.356-32-32-32h-32c-17.674 0-32-14.326-32-32s14.326-32 32-32c17.644 0 32-14.356 32-32s-14.356-32-32-32h-152.444z" />
<glyph unicode="&#xea96;" glyph-name="twitter" d="M1024 605.6c-37.6-16.8-78.2-28-120.6-33 43.4 26 76.6 67.2 92.4 116.2-40.6-24-85.6-41.6-133.4-51-38.4 40.8-93 66.2-153.4 66.2-116 0-210-94-210-210 0-16.4 1.8-32.4 5.4-47.8-174.6 8.8-329.4 92.4-433 219.6-18-31-28.4-67.2-28.4-105.6 0-72.8 37-137.2 93.4-174.8-34.4 1-66.8 10.6-95.2 26.2 0-0.8 0-1.8 0-2.6 0-101.8 72.4-186.8 168.6-206-17.6-4.8-36.2-7.4-55.4-7.4-13.6 0-26.6 1.4-39.6 3.8 26.8-83.4 104.4-144.2 196.2-146-72-56.4-162.4-90-261-90-17 0-33.6 1-50.2 3 93.2-59.8 203.6-94.4 322.2-94.4 386.4 0 597.8 320.2 597.8 597.8 0 9.2-0.2 18.2-0.6 27.2 41 29.4 76.6 66.4 104.8 108.6z" />
</font>
</defs>
</svg>
